<svg width="70" height="70" viewBox="0 0 70 70" fill="none" xmlns="http://www.w3.org/2000/svg">
<path d="M35.0003 20C30.5339 20.1206 26.2161 21.63 22.6473 24.3184C19.0785 27.0067 16.4362 30.7403 15.0878 35C16.4362 39.2597 19.0785 42.9933 22.6473 45.6816C26.2161 48.37 30.5339 49.8794 35.0003 50C39.4667 49.8794 43.7845 48.37 47.3532 45.6816C50.922 42.9933 53.5643 39.2597 54.9128 35C53.5643 30.7403 50.922 27.0067 47.3532 24.3184C43.7845 21.63 39.4667 20.1206 35.0003 20ZM35.0003 45C33.0225 45 31.0891 44.4135 29.4446 43.3147C27.8001 42.2159 26.5183 40.6541 25.7615 38.8268C25.0046 36.9996 24.8066 34.9889 25.1924 33.0491C25.5783 31.1093 26.5307 29.3275 27.9292 27.9289C29.3277 26.5304 31.1096 25.578 33.0494 25.1921C34.9892 24.8063 36.9998 25.0043 38.8271 25.7612C40.6544 26.5181 42.2162 27.7998 43.315 29.4443C44.4138 31.0888 45.0003 33.0222 45.0003 35C44.997 37.6511 43.9423 40.1928 42.0677 42.0674C40.193 43.9421 37.6514 44.9967 35.0003 45Z" fill="#E98074"/>
<path d="M35 0C28.0777 0 21.3108 2.05271 15.5551 5.8986C9.7993 9.7444 5.3133 15.2107 2.66423 21.6061C0.0151682 28.0015 -0.677951 35.0388 0.672529 41.8282C2.02301 48.6175 5.3564 54.8539 10.2513 59.7487C15.1461 64.6436 21.3825 67.977 28.1719 69.3275C34.9612 70.678 41.9985 69.9848 48.3939 67.3358C54.7893 64.6867 60.2556 60.2007 64.1015 54.445C67.9473 48.6892 70 41.9223 70 35C70 25.7174 66.3125 16.815 59.7487 10.2513C53.185 3.68749 44.2826 0 35 0ZM35 55C29.32 54.8486 23.8372 52.8847 19.3528 49.3952C14.8685 45.9058 11.6175 41.0737 10.075 35.605L9.925 35L10.075 34.395C11.6175 28.9263 14.8685 24.0942 19.3528 20.6048C23.8372 17.1153 29.32 15.1514 35 15C40.6801 15.1514 46.1628 17.1153 50.6472 20.6048C55.1316 24.0942 58.3825 28.9263 59.925 34.395L60.075 35L59.925 35.605C58.3825 41.0737 55.1316 45.9058 50.6472 49.3952C46.1628 52.8847 40.6801 54.8486 35 55Z" fill="#E98074"/>
<path d="M35 40C37.7614 40 40 37.7614 40 35C40 32.2386 37.7614 30 35 30C32.2386 30 30 32.2386 30 35C30 37.7614 32.2386 40 35 40Z" fill="#E98074"/>
</svg>
