<svg width="52" height="52" viewBox="0 0 52 52" fill="none" xmlns="http://www.w3.org/2000/svg">
<path d="M32.4967 4.35837C32.0467 3.90893 31.4367 3.65648 30.8007 3.65648C30.1647 3.65648 29.5547 3.90893 29.1047 4.35837L4.35913 29.104C4.13611 29.3268 3.95919 29.5915 3.83848 29.8828C3.71777 30.1741 3.65564 30.4863 3.65564 30.8016C3.65564 31.1169 3.71777 31.4291 3.83848 31.7204C3.95919 32.0116 4.13611 32.2763 4.35913 32.4992L6.83913 34.9792C6.86684 34.9893 6.89604 34.9947 6.92553 34.9952C7.07368 34.9952 7.21928 34.9566 7.34793 34.8832C8.71362 34.1356 10.2848 33.8509 11.826 34.0717C13.3672 34.2925 14.7952 35.0069 15.8961 36.1078C16.997 37.2087 17.7114 38.6367 17.9322 40.1779C18.153 41.7191 17.8683 43.2903 17.1207 44.656C17.0478 44.7837 17.0092 44.9281 17.0087 45.0752C17.0087 45.1264 17.0215 45.152 17.0247 45.1616L19.5015 47.6416C19.7244 47.8646 19.9891 48.0415 20.2803 48.1622C20.5716 48.2829 20.8838 48.3451 21.1991 48.3451C21.5144 48.3451 21.8266 48.2829 22.1179 48.1622C22.4092 48.0415 22.6738 47.8646 22.8967 47.6416L47.6391 22.8992C48.0886 22.4492 48.341 21.8392 48.341 21.2032C48.341 20.5672 48.0886 19.9572 47.6391 19.5072L45.1623 17.0272C45.1346 17.0171 45.1054 17.0117 45.0759 17.0112C44.9267 17.0105 44.7799 17.0492 44.6503 17.1232C43.2847 17.8694 41.7141 18.1531 40.1737 17.9317C38.6333 17.7103 37.2061 16.9958 36.1059 15.8952C35.0056 14.7947 34.2916 13.3672 34.0707 11.8268C33.8499 10.2863 34.1341 8.71576 34.8807 7.35037C34.9542 7.22172 34.9928 7.07612 34.9927 6.92797C34.9922 6.89848 34.9868 6.86928 34.9767 6.84157L32.4967 4.36157V4.35837ZM26.8391 2.09597C27.3591 1.5759 27.9765 1.16336 28.656 0.881895C29.3354 0.600433 30.0637 0.455566 30.7991 0.455566C31.5346 0.455566 32.2628 0.600433 32.9423 0.881895C33.6217 1.16336 34.2391 1.5759 34.7591 2.09597L37.2391 4.57597C38.5415 5.87837 38.3175 7.73117 37.6871 8.88317C37.2733 9.64164 37.1162 10.5137 37.2393 11.3689C37.3624 12.2241 37.7591 13.0165 38.37 13.6275C38.981 14.2384 39.7734 14.6351 40.6286 14.7582C41.4838 14.8813 42.3559 14.7242 43.1143 14.3104C44.2663 13.68 46.1223 13.4592 47.4215 14.7584L49.9047 17.2384C50.4248 17.7584 50.8373 18.3758 51.1188 19.0552C51.4003 19.7347 51.5451 20.4629 51.5451 21.1984C51.5451 21.9338 51.4003 22.6621 51.1188 23.3415C50.8373 24.021 50.4248 24.6384 49.9047 25.1584L25.1559 49.904C24.6359 50.424 24.0186 50.8366 23.3391 51.118C22.6596 51.3995 21.9314 51.5444 21.1959 51.5444C20.4605 51.5444 19.7322 51.3995 19.0528 51.118C18.3733 50.8366 17.7559 50.424 17.2359 49.904L14.7559 47.4272C13.4567 46.1248 13.6775 44.272 14.3079 43.12C14.7218 42.3615 14.8789 41.4894 14.7558 40.6342C14.6327 39.779 14.236 38.9866 13.625 38.3757C13.0141 37.7647 12.2217 37.368 11.3665 37.2449C10.5113 37.1218 9.6392 37.2789 8.88073 37.6928C7.72873 38.32 5.87273 38.544 4.57353 37.2448L2.09353 34.7616C1.57346 34.2416 1.16092 33.6242 0.879455 32.9447C0.597993 32.2653 0.453125 31.537 0.453125 30.8016C0.453125 30.0661 0.597993 29.3379 0.879455 28.6584C1.16092 27.9789 1.57346 27.3616 2.09353 26.8416L26.8359 2.09917L26.8391 2.09597Z" fill="white"/>
</svg>
