<svg width="15" height="15" viewBox="0 0 15 15" fill="none" xmlns="http://www.w3.org/2000/svg">
<path d="M6.88244 14.568C6.95125 14.7012 7.04332 14.8102 7.15072 14.8854C7.25813 14.9607 7.37765 15 7.49898 15C7.62032 15 7.73984 14.9607 7.84724 14.8854C7.95465 14.8102 8.04672 14.7012 8.11553 14.568L14.8661 1.56889C14.9442 1.41896 14.99 1.24335 14.9985 1.06113C15.0071 0.87892 14.978 0.697075 14.9144 0.535357C14.8509 0.373639 14.7553 0.238232 14.6381 0.143848C14.5208 0.0494646 14.3865 -0.000286324 14.2495 1.23957e-06H0.748455C0.611827 0.000753597 0.477937 0.0511443 0.361185 0.145754C0.244433 0.240364 0.149235 0.375613 0.0858294 0.536957C0.0224239 0.698301 -0.0067904 0.879636 0.0013282 1.06146C0.00944681 1.24328 0.0545911 1.41872 0.131906 1.56889L6.88244 14.568Z" fill="white"/>
</svg>
