<svg width="20" height="16" viewBox="0 0 20 16" fill="none" xmlns="http://www.w3.org/2000/svg">
<path d="M7.715 8C8.866 8 9.715 7.151 9.715 6C9.715 4.849 8.866 4 7.715 4C6.564 4 5.715 4.849 5.715 6C5.715 7.151 6.563 8 7.715 8Z" fill="#E98074"/>
<path d="M18 0H2C0.897 0 0 0.841 0 1.875V14.125C0 15.159 0.897 16 2 16H18C19.103 16 20 15.159 20 14.125V1.875C20 0.841 19.103 0 18 0ZM18 14L2 13.989V2L18 2.011V14Z" fill="#E98074"/>
<path d="M12 5H16V7H12V5ZM13 9H16V11H13V9ZM11.43 11.536C11.43 10.162 9.754 8.75 7.715 8.75C5.676 8.75 4 10.162 4 11.536V12H11.43V11.536Z" fill="#E98074"/>
</svg>
