<svg width="66" height="66" viewBox="0 0 66 66" fill="none" xmlns="http://www.w3.org/2000/svg">
<path fill-rule="evenodd" clip-rule="evenodd" d="M19.395 0.198C22.914 0.036 24.036 0 33 0C41.964 0 43.086 0.039 46.602 0.198C50.118 0.357 52.518 0.918 54.618 1.731C56.817 2.562 58.812 3.861 60.462 5.541C62.142 7.188 63.438 9.18 64.266 11.382C65.082 13.482 65.64 15.882 65.802 19.392C65.964 22.917 66 24.039 66 33C66 41.964 65.961 43.086 65.802 46.605C65.643 50.115 65.082 52.515 64.266 54.615C63.438 56.8173 62.1398 58.8126 60.462 60.462C58.812 62.142 56.817 63.438 54.618 64.266C52.518 65.082 50.118 65.64 46.608 65.802C43.086 65.964 41.964 66 33 66C24.036 66 22.914 65.961 19.395 65.802C15.885 65.643 13.485 65.082 11.385 64.266C9.18276 63.4379 7.18746 62.1398 5.538 60.462C3.85914 58.814 2.55994 56.8197 1.731 54.618C0.918 52.518 0.36 50.118 0.198 46.608C0.036 43.083 0 41.961 0 33C0 24.036 0.039 22.914 0.198 19.398C0.357 15.882 0.918 13.482 1.731 11.382C2.56117 9.18024 3.86136 7.18594 5.541 5.538C7.18812 3.8595 9.18142 2.56033 11.382 1.731C13.482 0.918 15.882 0.36 19.392 0.198H19.395ZM46.335 6.138C42.855 5.979 41.811 5.946 33 5.946C24.189 5.946 23.145 5.979 19.665 6.138C16.446 6.285 14.7 6.822 13.536 7.275C11.997 7.875 10.896 8.586 9.741 9.741C8.64614 10.8062 7.80354 12.1028 7.275 13.536C6.822 14.7 6.285 16.446 6.138 19.665C5.979 23.145 5.946 24.189 5.946 33C5.946 41.811 5.979 42.855 6.138 46.335C6.285 49.554 6.822 51.3 7.275 52.464C7.803 53.895 8.646 55.194 9.741 56.259C10.806 57.354 12.105 58.197 13.536 58.725C14.7 59.178 16.446 59.715 19.665 59.862C23.145 60.021 24.186 60.054 33 60.054C41.814 60.054 42.855 60.021 46.335 59.862C49.554 59.715 51.3 59.178 52.464 58.725C54.003 58.125 55.104 57.414 56.259 56.259C57.354 55.194 58.197 53.895 58.725 52.464C59.178 51.3 59.715 49.554 59.862 46.335C60.021 42.855 60.054 41.811 60.054 33C60.054 24.189 60.021 23.145 59.862 19.665C59.715 16.446 59.178 14.7 58.725 13.536C58.125 11.997 57.414 10.896 56.259 9.741C55.1938 8.64621 53.8971 7.80363 52.464 7.275C51.3 6.822 49.554 6.285 46.335 6.138ZM28.785 43.173C31.139 44.1529 33.7601 44.2851 36.2008 43.5472C38.6414 42.8092 40.7502 41.2467 42.1668 39.1267C43.5835 37.0067 44.2202 34.4606 43.9681 31.9233C43.7161 29.386 42.591 27.0149 40.785 25.215C39.6337 24.0644 38.2416 23.1834 36.709 22.6354C35.1764 22.0874 33.5413 21.8861 31.9215 22.0458C30.3017 22.2056 28.7375 22.7225 27.3414 23.5594C25.9454 24.3963 24.7522 25.5322 23.8479 26.8856C22.9436 28.2389 22.3506 29.7759 22.1115 31.3859C21.8725 32.9959 21.9935 34.6389 22.4656 36.1965C22.9378 37.7542 23.7494 39.1878 24.8422 40.3942C25.9349 41.6005 27.2815 42.5496 28.785 43.173ZM21.006 21.006C22.5811 19.4309 24.451 18.1815 26.5089 17.3291C28.5668 16.4767 30.7725 16.0379 33 16.0379C35.2275 16.0379 37.4332 16.4767 39.4911 17.3291C41.549 18.1815 43.4189 19.4309 44.994 21.006C46.5691 22.5811 47.8185 24.451 48.6709 26.5089C49.5233 28.5668 49.9621 30.7725 49.9621 33C49.9621 35.2275 49.5233 37.4332 48.6709 39.4911C47.8185 41.549 46.5691 43.4189 44.994 44.994C41.813 48.175 37.4986 49.9621 33 49.9621C28.5014 49.9621 24.187 48.175 21.006 44.994C17.825 41.813 16.0379 37.4986 16.0379 33C16.0379 28.5014 17.825 24.187 21.006 21.006ZM53.724 18.564C54.1143 18.1958 54.4268 17.753 54.6429 17.2619C54.859 16.7708 54.9744 16.2413 54.9823 15.7048C54.9901 15.1683 54.8902 14.6356 54.6884 14.1384C54.4867 13.6412 54.1873 13.1895 53.8079 12.8101C53.4285 12.4307 52.9768 12.1313 52.4796 11.9296C51.9824 11.7278 51.4497 11.6279 50.9132 11.6357C50.3767 11.6436 49.8472 11.759 49.3561 11.9751C48.865 12.1912 48.4222 12.5037 48.054 12.894C47.3379 13.6531 46.9459 14.6614 46.9611 15.7048C46.9763 16.7482 47.3976 17.7446 48.1355 18.4825C48.8734 19.2204 49.8698 19.6417 50.9132 19.6569C51.9566 19.6721 52.9649 19.2801 53.724 18.564Z" fill="white"/>
</svg>
