<svg width="107" height="86" viewBox="0 0 107 86" fill="none" xmlns="http://www.w3.org/2000/svg">
<path d="M0.735157 38.7335C-0.33151 51.5335 3.40182 62.2002 11.4018 71.8002C19.4018 81.4002 30.0685 85.6668 42.8685 85.6668H96.2018C98.8685 85.6668 101.535 84.6002 103.668 82.4668C105.802 80.3335 106.868 77.6668 106.868 75.0002V70.7335C106.868 67.5335 106.335 63.8002 105.802 59.0002H62.0685C56.7351 59.0002 52.4685 56.8668 48.7351 53.1335C45.0018 49.4002 42.8685 44.6002 42.8685 39.8002C42.8685 31.2668 46.6018 25.4002 54.6018 22.2002L80.2018 11.0002C71.1352 4.60017 60.4685 0.866838 48.2018 0.333505C36.4685 -0.733162 25.8018 3.00017 16.2018 10.4668C6.60182 17.9335 1.80182 27.0002 0.735157 38.7335ZM53.5352 39.8002C53.5352 41.9335 54.6018 44.0668 56.2018 45.6668C57.8018 47.2668 59.9352 48.3335 62.0685 48.3335H103.668C100.468 36.6002 95.6685 27.0002 88.7352 19.5335L58.8685 31.8002C55.1352 32.8668 53.5352 35.5335 53.5352 39.8002Z" fill="#8D2216"/>
</svg>
