<svg width="72" height="72" viewBox="0 0 72 72" fill="none" xmlns="http://www.w3.org/2000/svg">
<path d="M35.875 0C16.0637 0 0 16.0637 0 35.875C0 55.6863 16.0637 71.75 35.875 71.75C55.6863 71.75 71.75 55.6863 71.75 35.875C71.75 16.0637 55.6863 0 35.875 0ZM53.1158 27.0424C53.1398 27.4188 53.1398 27.8111 53.1398 28.1955C53.1398 39.951 44.1871 53.4922 27.8271 53.4922C22.7822 53.4922 18.1057 52.0268 14.1658 49.5043C14.8865 49.5844 15.5752 49.6164 16.3119 49.6164C20.476 49.6164 24.3037 48.207 27.3547 45.8207C23.4469 45.7406 20.1637 43.1781 19.0426 39.6547C20.4119 39.8549 21.6451 39.8549 23.0545 39.4945C21.0423 39.0857 19.2338 37.9929 17.936 36.4018C16.6383 34.8106 15.9314 32.8193 15.9355 30.766V30.6539C17.1127 31.3186 18.498 31.727 19.9475 31.783C18.729 30.971 17.7298 29.8708 17.0383 28.5801C16.3469 27.2894 15.9846 25.848 15.9836 24.3838C15.9836 22.7262 16.416 21.2127 17.1928 19.8994C19.4262 22.6488 22.2131 24.8974 25.3725 26.4992C28.5318 28.1009 31.9929 29.0199 35.5307 29.1965C34.2734 23.1506 38.7898 18.2578 44.2191 18.2578C46.7816 18.2578 49.0879 19.3309 50.7135 21.0605C52.7234 20.6842 54.6453 19.9314 56.359 18.9225C55.6943 20.9805 54.301 22.7182 52.4512 23.8152C54.2449 23.623 55.9746 23.1266 57.5762 22.4299C56.367 24.2076 54.8535 25.7852 53.1158 27.0424Z" fill="white"/>
</svg>
