<svg width="70" height="70" viewBox="0 0 70 70" fill="none" xmlns="http://www.w3.org/2000/svg">
<path d="M35.0004 20C30.534 20.1206 26.2162 21.63 22.6474 24.3184C19.0787 27.0067 16.4363 30.7403 15.0879 35C16.4363 39.2597 19.0787 42.9933 22.6474 45.6816C26.2162 48.37 30.534 49.8794 35.0004 50C39.4668 49.8794 43.7846 48.37 47.3534 45.6816C50.9221 42.9933 53.5644 39.2597 54.9129 35C53.5644 30.7403 50.9221 27.0067 47.3534 24.3184C43.7846 21.63 39.4668 20.1206 35.0004 20ZM35.0004 45C33.0226 45 31.0892 44.4135 29.4447 43.3147C27.8002 42.2159 26.5185 40.6541 25.7616 38.8268C25.0047 36.9996 24.8067 34.9889 25.1925 33.0491C25.5784 31.1093 26.5308 29.3275 27.9293 27.9289C29.3278 26.5304 31.1097 25.578 33.0495 25.1921C34.9893 24.8063 37 25.0043 38.8272 25.7612C40.6545 26.5181 42.2163 27.7998 43.3151 29.4443C44.4139 31.0888 45.0004 33.0222 45.0004 35C44.9971 37.6511 43.9425 40.1928 42.0678 42.0674C40.1932 43.9421 37.6515 44.9967 35.0004 45Z" fill="#000029"/>
<path d="M35 0C28.0777 0 21.3108 2.05271 15.5551 5.89856C9.79934 9.74441 5.3133 15.2107 2.66423 21.6061C0.0151651 28.0015 -0.677952 35.0388 0.672531 41.8282C2.02301 48.6175 5.35644 54.8539 10.2513 59.7487C15.1461 64.6436 21.3825 67.977 28.1719 69.3275C34.9612 70.678 41.9985 69.9848 48.3939 67.3358C54.7893 64.6867 60.2556 60.2007 64.1015 54.445C67.9473 48.6892 70 41.9223 70 35C70 25.7174 66.3125 16.815 59.7487 10.2513C53.185 3.68749 44.2826 0 35 0ZM35 55C29.32 54.8486 23.8372 52.8847 19.3528 49.3952C14.8685 45.9058 11.6175 41.0737 10.075 35.605L9.92502 35L10.075 34.395C11.6175 28.9263 14.8685 24.0942 19.3528 20.6048C23.8372 17.1153 29.32 15.1514 35 15C40.6801 15.1514 46.1628 17.1153 50.6472 20.6048C55.1316 24.0942 58.3825 28.9263 59.925 34.395L60.075 35L59.925 35.605C58.3825 41.0737 55.1316 45.9058 50.6472 49.3952C46.1628 52.8847 40.6801 54.8486 35 55Z" fill="#000029"/>
<path d="M35 40C37.7614 40 40 37.7614 40 35C40 32.2386 37.7614 30 35 30C32.2386 30 30 32.2386 30 35C30 37.7614 32.2386 40 35 40Z" fill="#000029"/>
</svg>
