<svg width="122" height="121" viewBox="0 0 122 121" fill="none" xmlns="http://www.w3.org/2000/svg">
<path d="M110.695 85.352L105.643 81.1541L106.647 79.9458C109.941 79.4362 113.021 77.9962 115.524 75.7953C118.028 73.5945 119.851 70.7242 120.778 67.5224C121.706 64.3207 121.699 60.9206 120.76 57.7223C119.82 54.5241 117.987 51.6607 115.475 49.4692C117.517 44.8252 118.364 39.7436 117.938 34.6881C117.618 30.7219 116.505 26.8603 114.665 23.3322C112.825 19.8041 110.296 16.6812 107.227 14.1487C100.93 8.91717 92.9152 6.62758 84.53 7.63157C82.918 5.11134 80.6036 3.11799 77.8722 1.89731C75.1408 0.67663 72.1119 0.281992 69.159 0.762056C66.206 1.24212 63.4581 2.5759 61.2541 4.59893C59.0501 6.62196 57.4863 9.24579 56.7556 12.1469C53.985 12.2373 51.2755 12.9849 48.8506 14.3281C46.4256 15.6712 44.3547 17.5715 42.8083 19.8722C41.262 22.173 40.2847 24.8083 39.9568 27.5609C39.629 30.3135 39.96 33.1046 40.9227 35.7042L4.43483 79.6201C1.84125 82.7484 0.594598 86.7779 0.968424 90.8243C1.34225 94.8708 3.30601 98.6037 6.42883 101.204L43.4798 131.988C46.6081 134.582 50.6376 135.828 54.684 135.454C58.7305 135.081 62.4633 133.117 65.0636 129.994L66.4629 128.31L71.5153 132.508C75.5376 135.842 80.7183 137.445 85.9208 136.964C91.1233 136.484 95.9227 133.959 99.266 129.944L113.259 113.103C116.593 109.08 118.196 103.9 117.715 98.6972C117.235 93.4947 114.71 88.6953 110.695 85.352ZM28.8423 91.359C28.1 92.2523 27.0333 92.8142 25.8768 92.921C24.7203 93.0279 23.5688 92.6709 22.6754 91.9287C21.7821 91.1865 21.2202 90.1198 21.1134 88.9633C21.0065 87.8068 21.3635 86.6552 22.1057 85.7619L50.0912 52.0792C50.8335 51.1859 51.9002 50.624 53.0567 50.5172C54.2132 50.4103 55.3647 50.7673 56.2581 51.5095C57.1514 52.2517 57.7133 53.3184 57.8201 54.4749C57.9269 55.6314 57.57 56.783 56.8278 57.6763L28.8423 91.359ZM42.3153 102.553C41.5731 103.447 40.5064 104.008 39.3499 104.115C38.1934 104.222 37.0418 103.865 36.1485 103.123C35.2552 102.381 34.6933 101.314 34.5865 100.157C34.4796 99.001 34.8366 97.8494 35.5788 96.9561L63.5643 63.2734C64.3065 62.3801 65.3732 61.8182 66.5297 61.7114C67.6862 61.6045 68.8378 61.9615 69.7311 62.7037C70.6244 63.4459 71.1863 64.5126 71.2932 65.6691C71.4 66.8256 71.0431 67.9772 70.3008 68.8705L42.3153 102.553ZM55.7884 113.747C55.0462 114.641 53.9795 115.203 52.823 115.309C51.6665 115.416 50.5149 115.059 49.6216 114.317C48.7282 113.575 48.1664 112.508 48.0595 111.352C47.9527 110.195 48.3096 109.044 49.0518 108.15L77.0374 74.4676C77.7796 73.5743 78.8463 73.0124 80.0028 72.9056C81.1593 72.7987 82.3109 73.1557 83.2042 73.8979C84.0975 74.6401 84.6594 75.7068 84.7662 76.8633C84.8731 78.0198 84.5161 79.1714 83.7739 80.0647L55.7884 113.747ZM98.3364 69.3902C96.5828 67.9332 94.9163 64.7054 94.6959 62.3409C94.5895 61.1846 94.0281 60.1179 93.1353 59.3754L67.4523 38.0364C66.7609 37.4647 65.9107 37.119 65.0165 37.0462C64.1223 36.9735 63.2274 37.1771 62.4527 37.6295C57.7476 40.3674 53.7292 38.0215 51.7504 36.3773C49.9637 34.8929 48.84 32.7595 48.6263 30.4465C48.4126 28.1335 49.1265 25.8303 50.6109 24.0437C52.0954 22.257 54.2288 21.1333 56.5418 20.9196C58.8548 20.7059 61.1579 21.4198 62.9446 22.9043C62.9635 22.92 64.805 24.571 65.3826 26.9938C65.5159 27.5532 65.7582 28.0808 66.0954 28.5466C66.4327 29.0124 66.8584 29.4072 67.3483 29.7085C67.8381 30.0097 68.3825 30.2116 68.9504 30.3024C69.5183 30.3933 70.0984 30.3714 70.6578 30.2381C71.2173 30.1047 71.7449 29.8625 72.2107 29.5252C72.6765 29.1879 73.0713 28.7622 73.3726 28.2724C73.6738 27.7825 73.8756 27.2381 73.9665 26.6703C74.0574 26.1024 74.0355 25.5222 73.9022 24.9628C73.042 21.5581 71.1736 18.4925 68.5417 16.1677C67.5495 15.3444 66.469 14.634 65.3198 14.0495C65.6243 13.0032 66.1842 12.049 66.9492 11.273C67.7143 10.4969 68.6603 9.92343 69.7022 9.60411C70.7441 9.28479 71.8491 9.22968 72.9175 9.44377C73.986 9.65785 74.9845 10.1344 75.8229 10.8305C76.6218 11.4878 77.2525 12.3261 77.6627 13.2758C78.0729 14.2256 78.2508 15.2595 78.1816 16.2917C78.1262 17.1307 77.9956 17.963 77.7914 18.7786C77.1696 19.7129 76.9302 20.8503 77.1227 21.956C77.3153 23.0617 77.925 24.0513 78.826 24.7204C79.727 25.3896 80.8506 25.6873 81.9647 25.5521C83.0788 25.4168 84.0985 24.859 84.8133 23.9937C85.9974 22.5685 86.7067 20.1687 86.9209 16.8487C86.9342 16.6356 86.929 16.4107 86.9409 16.2035C92.4108 15.8731 97.554 17.499 101.63 20.8852C103.801 22.6786 105.59 24.8896 106.89 27.3873C108.191 29.8849 108.977 32.6182 109.202 35.4253C109.481 38.9384 108.91 42.4671 107.537 45.713C106.165 48.9589 104.031 51.8266 101.316 54.0736C100.872 54.4395 100.505 54.8892 100.235 55.3971C99.9647 55.9049 99.7974 56.461 99.7424 57.0335C99.6873 57.6061 99.7456 58.1838 99.9139 58.7338C100.082 59.2838 100.357 59.7953 100.723 60.239C100.899 60.4511 101.094 60.6465 101.306 60.8227C102.09 61.4726 103.075 61.829 104.093 61.8307C105.112 61.8324 106.099 61.4793 106.885 60.832C108.261 59.697 109.536 58.4438 110.694 57.0866C112.079 58.7696 112.786 60.9084 112.678 63.0852C112.57 65.262 111.655 67.3203 110.11 68.8581C108.566 70.3958 106.503 71.3024 104.326 71.4008C102.149 71.4992 100.013 70.7824 98.3364 69.3902ZM92.5294 124.347C90.6739 126.58 88.0072 127.985 85.1159 128.252C82.2246 128.519 79.3457 127.627 77.1124 125.771L72.06 121.573L100.046 87.8907L105.098 92.0885C107.331 93.9441 108.736 96.6108 109.003 99.502C109.27 102.393 108.378 105.272 106.522 107.506L92.5294 124.347Z" fill="#C7BF00"/>
</svg>
