<svg width="237" height="239" viewBox="0 0 237 239" fill="none" xmlns="http://www.w3.org/2000/svg">
<path d="M174.612 108.401C162.799 106.921 152.463 102.481 145.079 93.6022C137.696 84.7229 131.79 74.3638 130.313 64.0047C124.407 62.5248 119.977 59.565 115.547 55.1254C109.64 47.726 106.687 40.3266 105.21 32.9272L91.9206 46.2461L80.1075 35.887C71.2477 25.5279 55.0047 25.5279 44.6682 35.887L7.75234 72.8839C-2.58411 83.243 -2.58411 99.5217 7.75234 109.881L18.0888 121.72L9.22897 130.599C-1.10748 140.958 -1.10748 157.237 9.22897 167.596L72.7243 231.231C83.0608 241.59 99.3037 241.59 108.164 231.231L202.668 135.039C195.285 133.559 187.902 130.599 181.995 124.68C180.519 118.76 177.565 112.841 174.612 108.401ZM23.9953 83.243L53.528 53.6455C57.9579 49.2059 65.3411 49.2059 68.2944 53.6455L75.6776 61.0449L32.8551 106.921L23.9953 98.0418C21.0421 93.6022 21.0421 87.6827 23.9953 83.243ZM32.8551 152.797C28.4252 148.358 28.4252 142.438 32.8551 139.478L96.3505 74.3638C100.78 69.9242 106.687 69.9242 109.64 74.3638C114.07 78.8034 114.07 84.7229 109.64 87.6827L46.1449 151.317C41.715 155.757 35.8084 155.757 32.8551 152.797ZM59.4346 179.435C55.0047 174.995 55.0047 169.076 59.4346 166.116L122.93 102.481C127.36 98.0418 133.266 98.0418 136.22 102.481C140.65 106.921 140.65 112.841 136.22 115.8L72.7243 179.435C69.771 183.875 63.8645 183.875 59.4346 179.435ZM164.276 142.438L100.78 207.553C96.3505 211.992 90.4439 211.992 87.4907 207.553C83.0608 203.113 83.0608 197.193 87.4907 194.234L150.986 130.599C155.416 126.159 161.322 126.159 164.276 130.599C167.229 132.079 167.229 139.478 164.276 142.438ZM229.248 77.3235C226.294 74.3638 221.864 71.404 218.911 71.404C224.818 56.6053 221.864 38.8468 210.051 28.4876C198.238 16.6486 181.995 13.6889 167.229 19.6084C165.752 15.1687 162.799 10.7291 159.846 7.76935C149.509 -2.58978 133.266 -2.58978 124.407 7.76935C114.07 18.1285 114.07 34.4071 124.407 44.7663C128.836 49.2059 136.22 52.1656 142.126 52.1656C140.65 64.0046 145.079 75.8437 153.939 84.7229C162.799 93.6022 174.612 96.5619 186.425 96.5619C186.425 103.961 189.379 109.881 193.808 114.32C204.145 124.68 220.388 124.68 229.248 114.32C239.584 103.961 239.584 87.6827 229.248 77.3235Z" fill="#E85A4F"/>
</svg>
