<svg width="56" height="56" viewBox="0 0 56 56" fill="none" xmlns="http://www.w3.org/2000/svg">
<path d="M39.6873 18.0625H36.7561C36.1186 18.0625 35.5123 18.3687 35.1373 18.8937L25.3123 32.5187L20.8623 26.3437C20.4873 25.825 19.8873 25.5125 19.2436 25.5125H16.3123C15.9061 25.5125 15.6686 25.975 15.9061 26.3062L23.6936 37.1062C23.8775 37.363 24.1201 37.5722 24.401 37.7166C24.682 37.8609 24.9933 37.9362 25.3092 37.9362C25.6251 37.9362 25.9364 37.8609 26.2174 37.7166C26.4983 37.5722 26.7408 37.363 26.9248 37.1062L40.0873 18.8563C40.3311 18.525 40.0936 18.0625 39.6873 18.0625Z" fill="white"/>
<path d="M28 0C12.5375 0 0 12.5375 0 28C0 43.4625 12.5375 56 28 56C43.4625 56 56 43.4625 56 28C56 12.5375 43.4625 0 28 0ZM28 51.25C15.1625 51.25 4.75 40.8375 4.75 28C4.75 15.1625 15.1625 4.75 28 4.75C40.8375 4.75 51.25 15.1625 51.25 28C51.25 40.8375 40.8375 51.25 28 51.25Z" fill="white"/>
</svg>
