<svg width="116" height="91" viewBox="0 0 116 91" fill="none" xmlns="http://www.w3.org/2000/svg">
<path d="M97.2507 76.5408C97.2507 77.9088 96.3243 78.8945 94.9951 78.8945C93.6257 78.8945 92.7396 77.8484 92.7396 76.5408C92.7396 75.2332 93.6257 74.1871 94.9951 74.1871C96.3243 74.1871 97.2507 75.2332 97.2507 76.5408ZM34.659 74.1871C33.2292 74.1871 32.4035 75.2332 32.4035 76.5408C32.4035 77.8484 33.2292 78.8945 34.659 78.8945C35.9681 78.8945 36.8542 77.9088 36.8542 76.5408C36.834 75.2332 35.9681 74.1871 34.659 74.1871ZM58.3222 74.1268C57.2347 74.1268 56.5701 74.8309 56.409 75.877H60.2556C60.0743 74.7303 59.3694 74.1268 58.3222 74.1268ZM80.0319 74.1871C78.6625 74.1871 77.8368 75.2332 77.8368 76.5408C77.8368 77.8484 78.6625 78.8945 80.0319 78.8945C81.4014 78.8945 82.2875 77.9088 82.2875 76.5408C82.2875 75.2332 81.4014 74.1871 80.0319 74.1871ZM101.359 79.4377C101.359 79.498 101.419 79.5383 101.419 79.659C101.419 79.7193 101.359 79.7596 101.359 79.8803C101.299 79.9406 101.299 79.9809 101.258 80.0412C101.198 80.1016 101.158 80.1418 101.037 80.1418C100.976 80.2021 100.936 80.2021 100.815 80.2021C100.755 80.2021 100.715 80.2021 100.594 80.1418C100.533 80.1418 100.493 80.0815 100.433 80.0412C100.372 79.9809 100.332 79.9406 100.332 79.8803C100.272 79.7797 100.272 79.7193 100.272 79.659C100.272 79.5584 100.272 79.498 100.332 79.4377C100.332 79.3371 100.392 79.2768 100.433 79.2164C100.493 79.1561 100.533 79.1561 100.594 79.1158C100.694 79.0555 100.755 79.0555 100.815 79.0555C100.916 79.0555 100.976 79.0555 101.037 79.1158C101.138 79.1762 101.198 79.1762 101.258 79.2164C101.319 79.2566 101.299 79.3371 101.359 79.4377ZM100.916 79.7193C101.017 79.7193 101.017 79.659 101.077 79.659C101.138 79.5986 101.138 79.5584 101.138 79.498C101.138 79.4377 101.138 79.3975 101.077 79.3371C101.017 79.3371 100.976 79.2768 100.856 79.2768H100.533V79.9809H100.694V79.6992H100.755L100.976 79.9809H101.138L100.916 79.7193ZM116 10.2949V81.1074C116 86.4385 111.67 90.7637 106.333 90.7637H9.66667C4.32986 90.7637 0 86.4385 0 81.1074V10.2949C0 4.96387 4.32986 0.638672 9.66667 0.638672H106.333C111.67 0.638672 116 4.96387 116 10.2949ZM12.8889 38.3785C12.8889 53.7682 25.3951 66.2408 40.7812 66.2408C46.259 66.2408 51.6361 64.5912 56.1875 61.5938C41.5063 49.6643 41.6069 27.1531 56.1875 15.2236C51.6361 12.2061 46.259 10.5766 40.7812 10.5766C25.3951 10.5564 12.8889 23.0492 12.8889 38.3785ZM58 60.266C72.1979 49.2016 72.1375 27.6359 58 16.5111C43.8625 27.6359 43.8021 49.2217 58 60.266ZM29.3424 75.6154C29.3424 73.8652 28.1944 72.7186 26.3819 72.6582C25.4556 72.6582 24.4688 72.9398 23.8042 73.9658C23.3208 73.141 22.4951 72.6582 21.3472 72.6582C20.5819 72.6582 19.8167 72.9398 19.2125 73.7445V72.8594H17.5611V80.2424H19.2125C19.2125 76.4402 18.709 74.167 21.025 74.167C23.0792 74.167 22.6764 76.2189 22.6764 80.2424H24.2674C24.2674 76.5609 23.7639 74.167 26.0799 74.167C28.134 74.167 27.7313 76.1787 27.7313 80.2424H29.3826V75.6154H29.3424ZM38.3847 72.8594H36.7938V73.7445C36.25 73.0807 35.4847 72.6582 34.4375 72.6582C32.3632 72.6582 30.7722 74.3078 30.7722 76.5408C30.7722 78.7939 32.3632 80.4234 34.4375 80.4234C35.4847 80.4234 36.25 80.0412 36.7938 79.3371V80.2625H38.3847V72.8594ZM46.541 78.0094C46.541 74.9918 41.9292 76.3598 41.9292 74.9516C41.9292 73.8049 44.3257 73.9859 45.6549 74.7303L46.3194 73.4227C44.4264 72.1955 40.2375 72.2156 40.2375 75.0723C40.2375 77.949 44.8493 76.742 44.8493 78.0898C44.8493 79.3572 42.1306 79.2566 40.6806 78.2508L39.9757 79.5182C42.2313 81.0471 46.541 80.7252 46.541 78.0094ZM53.6701 79.8803L53.2271 78.5123C52.4618 78.9348 50.7701 79.3975 50.7701 77.6875V74.348H53.4083V72.8594H50.7701V70.6062H49.1188V72.8594H47.5882V74.3279H49.1188V77.6875C49.1188 81.2281 52.6028 80.5844 53.6701 79.8803ZM56.3486 77.1846H61.8868C61.8868 73.9256 60.3965 72.6381 58.3826 72.6381C56.2479 72.6381 54.7174 74.2273 54.7174 76.5207C54.7174 80.6447 59.2688 81.3287 61.5243 79.3773L60.759 78.1703C59.1882 79.4578 56.8118 79.3371 56.3486 77.1846ZM68.2507 72.8594C67.3243 72.457 65.9146 72.4973 65.1896 73.7445V72.8594H63.5382V80.2424H65.1896V76.0781C65.1896 73.7445 67.1028 74.0463 67.7674 74.3883L68.2507 72.8594ZM70.3854 76.5408C70.3854 74.2475 72.7215 73.5031 74.5542 74.851L75.3195 73.5434C72.9833 71.7127 68.734 72.7186 68.734 76.5609C68.734 80.5441 73.2451 81.3488 75.3195 79.5785L74.5542 78.2709C72.7014 79.5785 70.3854 78.7939 70.3854 76.5408ZM83.8181 72.8594H82.1667V73.7445C80.4951 71.5316 76.1451 72.7789 76.1451 76.5408C76.1451 80.4033 80.6562 81.5098 82.1667 79.3371V80.2625H83.8181V72.8594ZM90.6049 72.8594C90.1215 72.618 88.3896 72.276 87.5438 73.7445V72.8594H85.9528V80.2424H87.5438V76.0781C87.5438 73.8652 89.3563 74.0061 90.1215 74.3883L90.6049 72.8594ZM98.7208 69.8619H97.1299V73.7445C95.4785 71.5518 91.1083 72.7186 91.1083 76.5408C91.1083 80.4436 95.6396 81.4897 97.1299 79.3371V80.2625H98.7208V69.8619ZM100.251 54.7539V55.6793H100.413V54.7539H100.795V54.593H99.8688V54.7539H100.251ZM101.581 79.659C101.581 79.5584 101.581 79.4377 101.52 79.3371C101.46 79.2768 101.419 79.1762 101.359 79.1158C101.299 79.0555 101.198 79.0152 101.138 78.9549C101.037 78.9549 100.916 78.8945 100.815 78.8945C100.755 78.8945 100.654 78.9549 100.533 78.9549C100.433 79.0152 100.372 79.0555 100.312 79.1158C100.211 79.1762 100.151 79.2768 100.151 79.3371C100.09 79.4377 100.09 79.5584 100.09 79.659C100.09 79.7193 100.09 79.8199 100.151 79.9406C100.151 80.001 100.211 80.1016 100.312 80.1619C100.372 80.2223 100.413 80.2625 100.533 80.3229C100.634 80.3832 100.755 80.3832 100.815 80.3832C100.916 80.3832 101.037 80.3832 101.138 80.3229C101.198 80.2625 101.299 80.2223 101.359 80.1619C101.419 80.1016 101.46 80.001 101.52 79.9406C101.581 79.8199 101.581 79.7193 101.581 79.659ZM102.225 54.5729H101.943L101.621 55.277L101.299 54.5729H101.017V55.6592H101.178V54.8344L101.5 55.5385H101.722L102.003 54.8344V55.6592H102.225V54.5729ZM103.111 38.3785C103.111 23.0492 90.6049 10.5564 75.2188 10.5564C69.741 10.5564 64.3639 12.2061 59.8125 15.2035C74.3326 27.133 74.5542 49.7045 59.8125 61.5736C64.3639 64.5912 69.7812 66.2207 75.2188 66.2207C90.6049 66.2408 103.111 53.7682 103.111 38.3785Z" fill="#8D2216"/>
</svg>
