<svg width="64" height="64" viewBox="0 0 64 64" fill="none" xmlns="http://www.w3.org/2000/svg">
<path d="M31.5 15C29.2255 15 27.0021 15.6158 25.1109 16.7696C23.2198 17.9233 21.7458 19.5632 20.8754 21.4818C20.005 23.4004 19.7772 25.5116 20.221 27.5484C20.6647 29.5852 21.76 31.4562 23.3683 32.9246C24.9766 34.3931 27.0257 35.3931 29.2565 35.7982C31.4872 36.2034 33.7995 35.9955 35.9009 35.2007C38.0022 34.406 39.7983 33.0602 41.0619 31.3335C42.3255 29.6068 43 27.5767 43 25.5C43 22.7152 41.7884 20.0445 39.6317 18.0754C37.4751 16.1062 34.55 15 31.5 15Z" fill="white"/>
<path d="M32 0C25.671 0 19.4841 1.87677 14.2218 5.39297C8.95939 8.90918 4.85787 13.9069 2.43587 19.7541C0.0138648 25.6014 -0.619841 32.0355 0.614885 38.2429C1.84961 44.4503 4.89732 50.1521 9.37259 54.6274C13.8479 59.1027 19.5497 62.1504 25.7571 63.3851C31.9645 64.6198 38.3986 63.9861 44.2459 61.5641C50.0931 59.1421 55.0908 55.0406 58.607 49.7782C62.1232 44.5159 64 38.329 64 32C63.9903 23.516 60.6158 15.3823 54.6167 9.38327C48.6177 3.38421 40.484 0.00967936 32 0ZM50.2674 52.4023C50.2219 49.4042 49.0004 46.544 46.8661 44.4379C44.7318 42.3318 41.8556 41.1485 38.8572 41.1428H25.1429C22.1444 41.1485 19.2682 42.3318 17.1339 44.4379C14.9996 46.544 13.7781 49.4042 13.7326 52.4023C9.58759 48.7011 6.66454 43.8283 5.35049 38.4289C4.03644 33.0296 4.39338 27.3585 6.37404 22.1665C8.3547 16.9746 11.8657 12.5067 16.442 9.35444C21.0183 6.20221 26.4442 4.51434 32.0012 4.51434C37.5581 4.51434 42.984 6.20221 47.5603 9.35444C52.1366 12.5067 55.6476 16.9746 57.6283 22.1665C59.6089 27.3585 59.9659 33.0296 58.6518 38.4289C57.3378 43.8283 54.4147 48.7011 50.2697 52.4023H50.2674Z" fill="white"/>
</svg>
