<svg width="80" height="80" viewBox="0 0 80 80" fill="none" xmlns="http://www.w3.org/2000/svg">
<path d="M0 2.66667C0 1.95942 0.28096 1.28115 0.781073 0.781048C1.28119 0.280951 1.95948 0 2.66675 0H10.667C11.2618 0.000164328 11.8396 0.199204 12.3083 0.565465C12.777 0.931727 13.1098 1.44418 13.2537 2.02133L15.4138 10.6667H77.3357C77.7273 10.667 78.114 10.7536 78.4683 10.9203C78.8226 11.0869 79.1359 11.3296 79.3859 11.631C79.6358 11.9323 79.8164 12.2851 79.9146 12.6641C80.0129 13.0431 80.0265 13.4391 79.9545 13.824L71.9542 56.4907C71.8398 57.1017 71.5155 57.6537 71.0373 58.051C70.5592 58.4483 69.9572 58.6661 69.3355 58.6667H21.334C20.7123 58.6661 20.1103 58.4483 19.6321 58.051C19.154 57.6537 18.8296 57.1017 18.7152 56.4907L10.7203 13.904L8.58693 5.33333H2.66675C1.95948 5.33333 1.28119 5.05238 0.781073 4.55229C0.28096 4.05219 0 3.37391 0 2.66667ZM16.5445 16L23.5474 53.3333H67.1221L74.125 16H16.5445ZM26.6675 58.6667C23.8384 58.6667 21.1252 59.7905 19.1248 61.7909C17.1243 63.7913 16.0005 66.5044 16.0005 69.3333C16.0005 72.1623 17.1243 74.8754 19.1248 76.8758C21.1252 78.8762 23.8384 80 26.6675 80C29.4966 80 32.2097 78.8762 34.2102 76.8758C36.2106 74.8754 37.3345 72.1623 37.3345 69.3333C37.3345 66.5044 36.2106 63.7913 34.2102 61.7909C32.2097 59.7905 29.4966 58.6667 26.6675 58.6667ZM64.002 58.6667C61.1729 58.6667 58.4597 59.7905 56.4593 61.7909C54.4588 63.7913 53.335 66.5044 53.335 69.3333C53.335 72.1623 54.4588 74.8754 56.4593 76.8758C58.4597 78.8762 61.1729 80 64.002 80C66.831 80 69.5442 78.8762 71.5447 76.8758C73.5451 74.8754 74.669 72.1623 74.669 69.3333C74.669 66.5044 73.5451 63.7913 71.5447 61.7909C69.5442 59.7905 66.831 58.6667 64.002 58.6667ZM26.6675 64C28.082 64 29.4386 64.5619 30.4388 65.5621C31.4391 66.5623 32.001 67.9188 32.001 69.3333C32.001 70.7478 31.4391 72.1044 30.4388 73.1046C29.4386 74.1048 28.082 74.6667 26.6675 74.6667C25.253 74.6667 23.8964 74.1048 22.8961 73.1046C21.8959 72.1044 21.334 70.7478 21.334 69.3333C21.334 67.9188 21.8959 66.5623 22.8961 65.5621C23.8964 64.5619 25.253 64 26.6675 64ZM64.002 64C65.4165 64 66.7731 64.5619 67.7733 65.5621C68.7736 66.5623 69.3355 67.9188 69.3355 69.3333C69.3355 70.7478 68.7736 72.1044 67.7733 73.1046C66.7731 74.1048 65.4165 74.6667 64.002 74.6667C62.5874 74.6667 61.2309 74.1048 60.2306 73.1046C59.2304 72.1044 58.6685 70.7478 58.6685 69.3333C58.6685 67.9188 59.2304 66.5623 60.2306 65.5621C61.2309 64.5619 62.5874 64 64.002 64Z" fill="#FCFCFC"/>
</svg>
