<svg width="123" height="109" viewBox="0 0 123 109" fill="none" xmlns="http://www.w3.org/2000/svg">
<g clip-path="url(#clip0)">
<path d="M42.2297 21.6953C34.2716 35.3492 38.0463 54.5418 52.7909 64.4504C68.6049 75.0777 91.0277 70.9963 101.393 57.2967C101.482 57.1796 101.56 57.0601 101.643 56.9466C86.9076 43.8963 57.6702 41.0999 42.2297 21.6953Z" fill="#600082"/>
<path d="M109.61 62.9667C123.261 44.9258 122.106 27.3481 122.106 27.3439L67.4071 -9.41501C67.4071 -9.41501 49.3829 -4.69744 35.7446 13.3276C22.7826 30.4588 26.2811 56.814 45.0984 70.8987C37.3429 80.6937 28.6063 90.4498 23.306 92.3007C15.8389 94.9102 5.04241 83.736 0.962769 89.1279L44.908 118.66C48.9888 113.266 34.255 107.286 34.4396 99.7827C34.5693 94.457 41.5084 83.4953 48.8085 73.392C69.0633 85.5668 96.6485 80.0979 109.61 62.9667ZM50.1616 67.9053C33.7198 56.8561 29.5101 35.4571 38.3839 20.2349C39.0234 19.1274 39.7314 18.0565 40.5043 17.0275C52.2955 1.44357 67.8719 -2.63265 67.8719 -2.63265L115.151 29.1397C115.149 29.1456 116.117 44.0821 104.626 59.5406C104.532 59.6683 104.447 59.8001 104.348 59.9314C92.7925 75.2036 67.7921 79.7532 50.1616 67.9053Z" fill="#600082"/>
</g>
<defs>
<clipPath id="clip0">
<rect width="123" height="109" fill="white"/>
</clipPath>
</defs>
</svg>
